HIERARCHY
ROOT Hips
{
	OFFSET -0.001795 -0.223333 0.028219
	CHANNELS 6 Xposition Yposition Zposition Zrotation Yrotation Xrotation 
	JOINT LeftUpLeg
	{
		OFFSET 0.069520 -0.091406 -0.006815
		CHANNELS 3 Zrotation Yrotation Xrotation
		JOINT LeftLeg
		{
			OFFSET 0.034277 -0.375199 -0.004496
			CHANNELS 3 Zrotation Yrotation Xrotation
			JOINT LeftFoot
			{
				OFFSET -0.013596 -0.397961 -0.043693
				CHANNELS 3 Zrotation Yrotation Xrotation
				JOINT LeftToe
				{
					OFFSET 0.026358 -0.055791 0.119288
					CHANNELS 3 Zrotation Yrotation Xrotation
					End Site
					{
						OFFSET 0.000000 0.000000 0.000000
					}
				}
			}
		}
	}
	JOINT RightUpLeg
	{
		OFFSET -0.067670 -0.090522 -0.004320
		CHANNELS 3 Zrotation Yrotation Xrotation
		JOINT RightLeg
		{
			OFFSET -0.038290 -0.382569 -0.008850
			CHANNELS 3 Zrotation Yrotation Xrotation
			JOINT RightFoot
			{
				OFFSET 0.015774 -0.398415 -0.042312
				CHANNELS 3 Zrotation Yrotation Xrotation
				JOINT RightToe
				{
					OFFSET -0.025372 -0.048144 0.123348
					CHANNELS 3 Zrotation Yrotation Xrotation
					End Site
					{
						OFFSET 0.000000 0.000000 0.000000
					}
				}
			}
		}
	}
	JOINT Spine
	{
		OFFSET -0.002533 0.108963 -0.026696
		CHANNELS 3 Zrotation Yrotation Xrotation
		JOINT Spine1
		{
			OFFSET 0.005487 0.135180 0.001092
			CHANNELS 3 Zrotation Yrotation Xrotation
			JOINT Spine2
			{
				OFFSET 0.001457 0.052922 0.025425
				CHANNELS 3 Zrotation Yrotation Xrotation
				JOINT Neck
				{
					OFFSET -0.002778 0.213870 -0.042857
					CHANNELS 3 Zrotation Yrotation Xrotation
					JOINT Head
					{
						OFFSET 0.005152 0.064970 0.051349
						CHANNELS 3 Zrotation Yrotation Xrotation
						End Site
						{
							OFFSET 0.000000 0.000000 0.000000
						}
					}
				}
				JOINT LeftShoulder
				{
					OFFSET 0.078845 0.121749 -0.034090
					CHANNELS 3 Zrotation Yrotation Xrotation
					JOINT LeftArm
					{
						OFFSET 0.090977 0.030469 -0.008868
						CHANNELS 3 Zrotation Yrotation Xrotation
						JOINT LeftForeArm
						{
							OFFSET 0.259612 -0.012772 -0.027456
							CHANNELS 3 Zrotation Yrotation Xrotation
							JOINT LeftHand
							{
								OFFSET 0.249234 0.008986 -0.001171
								CHANNELS 3 Zrotation Yrotation Xrotation
								End Site
								{
									OFFSET 0.000000 0.000000 0.000000
								}
							}
						}
					}
				}
				JOINT RightShoulder
				{
					OFFSET -0.081759 0.118833 -0.038615
					CHANNELS 3 Zrotation Yrotation Xrotation
					JOINT RightArm
					{
						OFFSET -0.096012 0.032551 -0.009143
						CHANNELS 3 Zrotation Yrotation Xrotation
						JOINT RightForeArm
						{
							OFFSET -0.253742 -0.013329 -0.021401
							CHANNELS 3 Zrotation Yrotation Xrotation
							JOINT RightHand
							{
								OFFSET -0.255298 0.007772 -0.005559
								CHANNELS 3 Zrotation Yrotation Xrotation
								End Site
								{
									OFFSET 0.000000 0.000000 0.000000
								}
							}
						}
					}
				}
			}
		}
	}
}
MOTION
Frames: 14
Frame Time: 0.05000000
0.000000 0.807246 0.000000 -0.415662 8.115013 26.962685 4.609366 -2.440251 -30.523109 -7.258043 0.790987 44.458823 9.590072 12.920519 -38.374090 0.000000 0.000000 0.000000 -8.561557 -1.894758 -76.753998 13.847279 -9.081556 61.324266 -9.538392 -27.887205 -20.642120 0.000000 0.000000 0.000000 -3.370091 -3.055301 56.137849 12.006369 -1.301946 -26.849913 3.276308 3.577497 26.661543 -5.213556 4.521008 -41.040144 0.000000 0.000000 0.000000 -9.115689 -20.709297 8.755208 -28.167081 -47.004231 3.690175 37.282451 -49.142408 -13.931894 0.000000 0.000000 0.000000 19.438214 19.378982 12.538645 33.073093 28.888483 1.230668 -22.939850 31.196198 -3.873883 0.000000 0.000000 0.000000 
0.002059 0.785493 0.113183 -3.167862 7.304590 28.405660 6.707675 -1.520184 -22.717000 -3.592756 -0.619139 41.181542 8.594110 9.820458 -32.569243 0.000000 0.000000 0.000000 -8.748360 -1.768583 -84.049791 16.624145 -8.596463 50.053583 -9.204377 -23.836937 -5.106749 0.000000 0.000000 0.000000 -2.222795 -3.452880 56.169468 12.298455 -1.021799 -29.937606 3.398592 1.434966 30.493790 -4.836095 3.877392 -49.483089 0.000000 0.000000 0.000000 -5.742705 -16.683894 7.026593 -19.186878 -50.683448 1.060961 41.387271 -45.629277 -14.283332 0.000000 0.000000 0.000000 16.629299 22.983814 13.103465 29.863984 32.230259 1.642188 -29.783518 26.097321 -4.619992 0.000000 0.000000 0.000000 
0.004899 0.778063 0.242264 -4.699536 4.193654 30.955388 4.478148 -1.027847 -12.226798 1.904594 -1.990930 31.578012 8.196315 12.556701 -25.414060 0.000000 0.000000 0.000000 -8.293049 0.769824 -85.477679 18.307213 -8.561358 45.538701 -8.796051 -23.008409 -0.242365 0.000000 0.000000 0.000000 -2.301786 -2.106716 51.631083 14.824746 -1.858418 -26.558166 3.172364 3.949871 29.375177 -9.695169 5.551543 -46.087351 0.000000 0.000000 0.000000 -5.812561 -18.030204 7.396339 -16.848615 -48.352943 0.005439 38.364064 -42.930460 -12.570965 0.000000 0.000000 0.000000 11.709348 20.917705 11.142804 27.540135 36.453627 2.218770 -25.935424 24.240880 -3.540872 0.000000 0.000000 0.000000 
0.006966 0.777968 0.383216 -4.361886 5.653709 34.302304 4.689684 -0.904752 -8.680291 4.865051 -3.277879 31.885401 2.803545 5.829435 -0.322466 0.000000 0.000000 0.000000 -8.355703 -0.035281 -82.501715 20.570249 -10.873946 49.312752 -9.574753 -26.906886 -10.669575 0.000000 0.000000 0.000000 2.283110 -4.892765 48.211115 9.770705 -1.144481 -24.902840 4.854444 0.315353 29.007426 -14.586342 6.317435 -47.925269 0.000000 0.000000 0.000000 -7.577923 -17.584525 8.043458 -13.793263 -49.230675 -0.838764 37.377919 -41.808958 -11.313128 0.000000 0.000000 0.000000 8.870329 23.734319 11.343058 20.575861 36.652971 0.591475 -30.185937 25.096336 -4.679535 0.000000 0.000000 0.000000 
0.008924 0.790327 0.528702 -3.193768 5.870784 37.307224 3.944650 -1.076066 -11.592002 5.534538 -4.258073 37.609917 0.703332 5.077336 8.734152 0.000000 0.000000 0.000000 -5.193860 2.195530 -76.436331 17.937984 -10.334981 54.486172 -8.190290 -24.699522 -24.628645 0.000000 0.000000 0.000000 3.670673 -5.570732 45.950202 8.619444 -0.766130 -25.992641 4.367773 1.375800 30.639254 -17.513928 7.432373 -46.130297 0.000000 0.000000 0.000000 -10.956546 -20.224002 9.740233 -14.071841 -50.199164 -1.175559 34.839674 -40.802152 -9.922883 0.000000 0.000000 0.000000 9.796759 24.173006 12.220443 10.520925 39.224315 -2.006102 -34.913047 23.714014 -5.081447 0.000000 0.000000 0.000000 
0.011707 0.812413 0.675388 -2.971783 3.718031 39.713796 3.075452 -1.592966 -20.145390 1.891054 -3.057324 48.327077 3.438203 9.324786 6.653821 0.000000 0.000000 0.000000 -1.779480 4.615288 -62.773604 13.156875 -6.488430 51.515070 -7.057542 -17.315987 -31.683729 0.000000 0.000000 0.000000 0.101431 -3.164956 47.225918 11.338387 -1.173716 -26.095635 4.583319 5.921299 30.803725 -15.428628 7.203639 -45.101241 0.000000 0.000000 0.000000 -12.467580 -21.842533 9.853094 -17.256587 -48.226200 -0.506329 30.739392 -46.419244 -9.927777 0.000000 0.000000 0.000000 6.043809 27.127882 13.570301 3.095188 37.786615 -3.479237 -39.054680 21.548078 -5.038481 0.000000 0.000000 0.000000 
0.015615 0.836408 0.826564 -1.399548 4.132915 42.576328 5.816902 -2.175880 -35.504869 -5.295082 1.080680 62.037772 6.533802 14.747990 2.574807 0.000000 0.000000 0.000000 0.852062 4.555722 -50.399302 7.955339 -3.062724 45.122319 -6.774324 -14.750703 -33.416620 0.000000 0.000000 0.000000 -1.551165 -2.405351 46.940712 11.551217 -0.862736 -27.940854 4.692464 7.412357 30.776236 -17.220465 8.386236 -40.824480 0.000000 0.000000 0.000000 -20.773245 -22.758267 10.609639 -19.530305 -43.202787 -0.181102 24.885007 -50.668251 -8.158673 0.000000 0.000000 0.000000 8.229076 28.595614 15.759119 -2.634112 33.886899 -4.495943 -42.498588 21.850832 -5.680472 0.000000 0.000000 0.000000 
0.021711 0.861053 0.984342 0.516435 4.124609 46.189463 5.610185 -3.246725 -51.158393 -8.736948 3.804109 68.470417 8.507840 18.875631 -1.961471 0.000000 0.000000 0.000000 1.038357 3.571759 -39.380427 4.927735 -1.260110 34.862606 -4.206200 -7.003738 -15.503775 0.000000 0.000000 0.000000 -4.989145 -0.282007 44.463633 12.551995 -0.849289 -27.936372 5.303427 9.643401 32.348040 -17.943226 8.433833 -43.502778 0.000000 0.000000 0.000000 -29.017111 -24.509179 10.989547 -19.128587 -37.724311 -0.775581 16.664687 -55.650533 -4.769248 0.000000 0.000000 0.000000 9.198262 22.506736 13.995973 -1.920473 34.232511 -4.659388 -46.696565 21.274269 -5.442892 0.000000 0.000000 0.000000 
0.030516 0.878860 1.155104 2.761364 4.599058 47.860411 4.985588 -4.444532 -58.949545 -12.319848 6.070589 65.537687 10.368942 24.191027 -11.667475 0.000000 0.000000 0.000000 0.298728 2.787946 -32.913745 2.160622 -0.307147 33.338873 -0.328972 -1.753317 2.320989 0.000000 0.000000 0.000000 -6.793800 0.648996 43.230771 11.619913 -0.737643 -26.832127 5.655143 7.953083 32.392670 -16.463046 9.278825 -34.551972 0.000000 0.000000 0.000000 -36.074957 -25.062533 12.576057 -16.416151 -30.916530 -1.450104 17.179919 -59.251208 -5.629201 0.000000 0.000000 0.000000 18.263459 19.884018 15.442233 -1.688844 30.762595 -4.789368 -50.775404 27.018918 -8.712682 0.000000 0.000000 0.000000 
0.040681 0.891363 1.337300 4.113812 5.436432 49.685679 4.337533 -5.455134 -62.383983 -14.154720 6.764582 62.312577 10.341829 25.875661 -20.595927 0.000000 0.000000 0.000000 0.570739 2.668310 -32.425391 1.045537 -0.260283 42.683657 -0.393762 -2.176108 3.006279 0.000000 0.000000 0.000000 -8.154884 1.382179 42.248386 15.852183 -0.699485 -27.625438 3.649987 7.109749 33.152653 -40.235539 31.108682 -2.558341 0.000000 0.000000 0.000000 -49.381927 -23.777304 13.517902 -9.671813 -24.551577 -2.189936 13.443784 -62.341143 -3.619990 0.000000 0.000000 0.000000 35.110443 17.373625 18.931855 -7.255625 25.618690 -5.152798 -49.462466 35.262247 -13.533993 0.000000 0.000000 0.000000 
0.049800 0.899793 1.524700 3.921184 5.577655 49.515290 4.297953 -5.112419 -59.182480 -14.361149 6.959388 63.207309 10.348509 25.983949 -20.771031 0.000000 0.000000 0.000000 0.961937 2.966781 -36.236339 2.621330 -2.162215 64.048120 -2.138940 -4.059287 -4.205891 0.000000 0.000000 0.000000 -8.747508 1.681374 47.090313 29.424594 1.592770 -37.513294 -6.612565 13.001272 44.539230 -9.738334 55.361682 86.268683 0.000000 0.000000 0.000000 -55.439293 -23.389373 11.265774 -2.431869 -23.321587 -2.365438 20.065301 -66.713352 -9.604766 0.000000 0.000000 0.000000 51.430447 16.709169 24.822162 -14.871175 18.966496 -3.556466 -50.053096 34.088830 -17.467163 0.000000 0.000000 0.000000 
0.055853 0.911760 1.711022 2.814921 5.540889 49.604520 4.960504 -4.527158 -58.325165 -14.237396 8.052138 70.156150 10.930547 31.344745 -28.948695 0.000000 0.000000 0.000000 0.530640 3.529223 -46.292950 5.656410 -6.325691 87.852641 -4.188660 -8.045210 -9.129618 0.000000 0.000000 0.000000 -8.654304 1.787603 55.053689 63.502974 25.357797 -65.179219 -32.961200 43.272381 86.558248 26.340039 32.716483 169.636221 0.000000 0.000000 0.000000 -44.279419 -29.696780 4.074503 0.457070 -30.107968 -1.669060 53.814449 -66.529186 -40.339229 0.000000 0.000000 0.000000 61.503243 17.889492 29.367546 -22.475017 23.756618 -3.223940 -54.210922 24.660938 -22.329236 0.000000 0.000000 0.000000 
0.060351 0.928723 1.892517 3.350513 6.489466 50.252380 6.054216 -4.536841 -61.026560 -15.063576 10.906727 83.200000 12.260213 36.018861 -27.481857 0.000000 0.000000 0.000000 -1.153617 3.351379 -63.365572 9.349975 -14.212076 108.123926 -8.655932 -20.739750 -10.276000 0.000000 0.000000 0.000000 -9.423790 1.946566 68.956662 103.108668 46.451459 -67.928077 -51.107835 72.102037 86.634558 6.846446 27.937675 150.108650 0.000000 0.000000 0.000000 -53.312952 -29.388916 2.388712 1.230102 -30.175796 -0.412671 74.173542 -74.697272 -61.985244 0.000000 0.000000 0.000000 52.952456 18.268224 27.199654 -13.790085 24.561122 -4.069459 -53.617282 30.939646 -23.125714 0.000000 0.000000 0.000000 
0.063758 0.931477 2.069965 3.155702 6.375820 49.292845 12.054311 -1.792404 -66.017870 -16.595061 21.773206 104.931707 12.898415 42.976717 -37.704709 0.000000 0.000000 0.000000 -0.908426 4.339631 -78.075702 12.819117 -22.130886 120.422874 -12.532821 -37.780469 -28.091673 0.000000 0.000000 0.000000 -9.961629 3.312870 93.425009 114.073496 56.898999 -74.228657 3.770196 73.597083 136.371075 -5.099659 28.768511 139.128539 0.000000 0.000000 0.000000 -75.362252 -34.330660 -6.523088 4.896841 -27.537876 1.442496 11.649129 -84.870490 4.277039 0.000000 0.000000 0.000000 43.138902 14.765299 24.744430 -15.197890 27.500731 -5.215186 -59.276932 35.060049 -28.441856 0.000000 0.000000 0.000000 
